<?xml version="1.0" encoding="UTF-8"?>
<svg id="Propos_3" data-name="Propos 3" xmlns="http://www.w3.org/2000/svg" viewBox="0 0 350 300">
  <g>
    <path d="M80.5,258.04v-.67c-7.22-9.12-11.51-20.87-11.51-33.85,0-11.88,3.48-22.61,9.53-31.25-4.8-11.32-17.96-18.57-35.76-18.57-6.36,0-12.81.91-18.8,3.11-4.91,1.79-9.37,4.68-12.9,8.55-.03.03-.07.05-.09.08-2.48,2.69-4.74,5.99-5.38,9.7-.61,3.57-.71,7.73,1.44,10.85,2.96,4.31,8.87,5.94,13.77,4.35,5.42-1.79,8.79-7.97,7.83-13.52-.45-2.59-1.39-5.25-.75-7.88,1.33-5.55,8.08-7.59,13.15-7.59,10.16,0,16.48,8.25,16.48,20.92v11.09C23.38,219.51,1.94,231.38,1.94,249.21c0,13.03,11.5,24.16,33.73,24.16,9.18,0,16.49-1.93,27.41-1.93h22.24v-.95c-3.47-2.69-4.81-6.14-4.81-12.45ZM57.5,258.04c0,4.2-1.53,5.93-4.8,6.12l-6.69.18c-12.26.4-19.37-8.4-19.37-18.38,0-11.72,9.39-19.94,30.86-25.51v37.58Z"/>
    <path d="M156.42,247.09c-5.37,7.87-15.14,12.67-25.69,12.67-15.32,0-26.63-10.16-31.8-25.69l57.09-35.26c0-14-14.95-25.11-34.85-25.11-17.73,0-32.81,8.66-41.41,22.33-4.89,7.76-7.68,17.15-7.68,27.49,0,10.89,3.1,20.72,8.42,28.72,8.6,12.98,23.03,21.13,39.5,21.13s31.04-9.02,38.72-24.34l-2.3-1.94ZM95.85,213.76c0-18.59,8.26-32.02,20.52-32.02,9.38,0,15.72,8.04,17.65,21.64l-37,22.82c-.76-3.82-1.16-8.03-1.16-12.44Z"/>
    <path d="M279.99,268.78c-3.73-2.2-6.67-4.84-8.75-7.88-3.35-4.9-3.86-10.57-1.37-15.55,2.07-4.13,6.42-6.92,10.81-6.92.07,0,.13,0,.19.02v-13.6c-2.8-2.22-5.08-4.69-6.77-7.33-1.94-3.02-3.24-6.52-3.76-10.12-.18-1.34-.29-2.74-.29-4.16,0-4.62,1.04-9.13,3-13.08,1.8-3.67,4.43-6.95,7.82-9.77v-12.75l-.55-.36-5.36,1.05-10.12,1.99-11.74,2.31v.98c3.42,2.69,4.78,6.11,4.78,12.45v71.98c0,6.3-1.35,9.76-4.78,12.45v.95h32.58v-.06c-1.89-.65-3.83-1.49-5.7-2.59Z"/>
    <path d="M348.03,241.59c0,7.05-2.85,13.69-7.86,18.64-5.81,5.74-13.96,8.51-21.81,10.02-4.85.94-9.81,1.32-14.75,1.14-3.59-.13-7.19-.57-10.71-1.29-3.67-.75-7.2-1.74-10.47-3.49-.29-.16-.58-.33-.87-.49-3.01-1.77-5.8-4.08-7.78-6.96-2.56-3.75-3.21-8.29-1.15-12.42,1.53-3.06,4.85-5.28,8.24-5.2.28,0,.56.03.83.06,4.59.64,7.43,4.72,9.59,8.42,2.64,4.5,4.81,9.32,9.98,11.4,3.82,1.53,8.07,1.08,12.05.55,3.49-.48,7.48-1.05,10.39-3.2,3.29-2.42,5.35-6.31,4.51-10.45-.42-2.09-1.94-3.95-3.49-5.33-1.89-1.68-4.13-2.95-6.39-4.06-2.72-1.33-5.54-2.45-8.36-3.53-3.11-1.18-6.24-2.32-9.35-3.53-3.15-1.25-6.29-2.55-9.32-4.09-2.91-1.46-5.74-3.14-8.31-5.15-.73-.58-1.45-1.18-2.13-1.83-1.58-1.47-3-3.11-4.17-4.93-1.72-2.69-2.83-5.74-3.3-8.9-.18-1.24-.26-2.47-.26-3.72,0-4.05.88-8.07,2.68-11.71,1.27-2.6,3-4.92,5.05-6.96.88-.89,1.82-1.72,2.81-2.49,3.75-2.9,8.14-4.92,12.7-6.24,6.42-1.85,13.08-2.28,19.74-2.04,3.34.12,6.69.45,9.97,1.24,5.85,1.38,11.32,4.41,15.43,8.85,1.16,1.27,2.24,2.65,3.15,4.14.39.64.75,1.27,1.08,1.93.77,1.59,1.41,3.28,1.8,5.05.71,3.03.77,6.3-.51,9.15-1.86,4.17-6.82,6.76-11.32,5.91-4.53-.83-8.19-5.04-8.44-9.63-.08-1.93.31-3.81.75-5.67.3-1.23.88-2.46.81-3.78-.03-.36-.09-.66-.24-.99-.3-.75-.91-1.41-1.5-1.99-1.57-1.49-3.31-2.76-5.19-3.75-1.35-.75-2.76-1.35-4.2-1.8-2.22-.66-4.59-1.02-7.15-1.02-10.9,0-18.03,6.4-18.03,13.18,0,18.99,55.49,15.04,55.49,46.99Z"/>
    <path d="M237.82,177.21c1.26-.99,2.7-1.73,4.21-2.23,2.31-.76,4.91-.67,7.23-1.3.05,0,.11-.02.16-.03,1.25-.36,2.4-.97,3.38-2.04,1.91-2.12,2.5-5.16,2.37-7.93-.03-.54-.09-1.06-.17-1.59-.32-2.22-1.08-4.71-2.88-6.18-.76-.61-1.54-1.02-2.36-1.26-1.52-.44-3.11-.28-4.68.29,0,0-.02,0-.03,0-3.74,1.32-7.33,4.82-9.29,7.43-.24.34-.47.7-.71,1.03-.13.19-.26.39-.39.59-.24.36-.48.72-.7,1.08-.39.64-.77,1.28-1.13,1.96-.98,1.86-1.8,3.79-2.49,5.77-.31.87-.6,1.75-.87,2.62-.31,1.01-.59,2.03-.83,3.06-6.51-3.06-13.98-4.77-22.02-4.77-25.32,0-44.47,16.66-44.47,39.29,0,13.4,6.7,24.52,17.43,31.61-10.54,7.09-17.43,18.2-17.43,28.74,0,11.51,8.05,19.77,21.46,19.77s32.39-8.26,45.99-8.26c10.55,0,15.33,4.79,15.33,15.14h.98c3.23-5.93,4.98-12.63,4.98-19.54,0-13.42-6.55-20.31-19.36-20.31-15.71,0-30.13,10.15-44.68,10.15-7.29,0-11.11-2.5-11.11-7.08,0-4.81,3.82-10.16,10.53-14.96,5.96,2.48,12.84,4.04,20.33,4.04,25.11,0,44.28-16.7,44.28-39.29,0-13.06-6.33-24.17-16.71-31.25.62-1.26,1.43-2.43,2.41-3.43.39-.39.8-.76,1.23-1.11ZM210.42,244.43c-13.79,0-23.76-18.59-23.76-38.35,0-16.3,6.69-24.52,15.9-24.52,13.03,0,23.76,17.24,23.76,38.31,0,16.3-6.69,24.55-15.9,24.55Z"/>
  </g>
  <path d="M300.92,78.49c-1.2-3.91-3.04-7.92-5.47-11.8-.08-.14-.17-.27-.26-.4-3.84-6.01-8.57-10.8-13.47-14-3.44-2.26-6.96-3.73-10.28-4.31-.17-.04-.35-.1-.53-.14,0,0-.19-7.9.45-9.18,0,0,1.39-7.65-4.73-9.65,0,0,.08-3.13.41-3.78l-.68-.39s2.23-6,3.26-6.81c1.01-.79-1.86-4.42-8.48-3.36-6.62,1.06-4.21,14.87-4.16,16.2,0,0-2.72,3.13-1.33,9.11,1.41,5.98,3.91,9.08.96,13.92,0,0-1.09.79-2.42,1.44-1.13.55-5.73,3.55-6.29,7.4-.55,3.83-.2,4.99-.2,4.99,0,0-3.42,2.22-3.69,8.03,0,0-2.62-2.48-5.78-3.99-1.44-.68-2.87-2.89-3.14-3.58,0,0,0-6.26-1.21-6.67-1.22-.4-1.76.16-1.76.16l-1.25-20.88-1.5-25.04-.08-1.29s1.38-.83,1.38-3.09-3.19-11.37-3.19-11.37c0,0-2.1,9.24-1.81,11.06.29,1.82,1.52,3.32,1.52,3.32l.16,2.58,1.47,24.22,1.25,20.58s-.33.03-.78.18c-.66.21-1.57.7-2.02,1.78-.76,1.82-.99,2.96-.68,3.79.31.84,1.21,2.74,1.96,3.17.75.48,1.83,1.23,1.83,1.23l3,44.43,2.59,38.51.97.63c.69.04,1.28.33,1.81.39.56.05,4.17-.55,6.34-.92.02,0,.03,0,.03,0,.94-.17,1.6-.29,1.6-.29h8.35c1.06-.58,2.01-1.7,1.93-3.88,0,0-.12-2.09-2.5-6.25,0,0-.77-1.02-.5-5.71.5-8.6-3.67-10.53-3.24-11.09,0,0,1.86-3.37,3.97-5.57,2.12-2.2,2.88-4.99,2.88-4.99l7.87-.08s-.54,7.73,0,9.17c.53,1.44.68,2.04.68,2.88s.83,1.81.99,2.64c.14.83,1.12.23.75,6.44,0,0,.03.19.04.52.17,1.62.72,6.63,1.85,8.78.78,1.48.5,4.16.11,6.19-.29,1.49-.64,2.6-.64,2.6,0,0,.53,4.31-.29,5.21-.84.91-2.58,4.39-3.48,4.84-.91.45-1.9,2.88-.91,3.79.06.06.17.12.31.18.07.03.14.05.22.08l2.43-.27h6.43c.45-.3.9-.71.97-1.27.03-.17.05-.34.08-.53.15-1.1.34-2.5.55-2.95.22-.54.52-2.27,0-3.26-.24-.43-.26-1.39-.21-2.43.08-1.37.32-2.85.5-3.16.3-.54.69-7.04,1.36-8.17.69-1.14.85-12.35-.51-16.74,0,0-.03-.32-.08-.81-.16-1.97-.54-6.93-.24-7.58.37-.84.82-8.48.82-8.48,0,0,1.67.22,1.91-.54l-.37-5.57c-.51-1.47-.81-3.02-.83-4.63.88.47,1.75.89,2.64,1.26-6.37-3.03-12.78-8.84-17.69-16.65-9.59-15.27-9.74-32.43-.36-38.32,3.31-2.07,7.35-2.47,11.62-1.45-3.72-.6-7.19-.07-10.1,1.76-9.38,5.89-9.23,23.05.35,38.31,5.42,8.64,12.69,14.82,19.69,17.51h.03c4.32,1.07,8.42.69,11.75-1.43,6.99-4.37,8.7-15.03,5.11-26.51ZM227.08,13.17c-1.89-2.27.52-11.05.52-11.05.16,2.12-.52,11.05-.52,11.05ZM229.33,41.07l-1.41-21.23h1.2l-.6.55.91,20.64.2,4.31-.29-4.27ZM252.5,87.29c.18.4,0,3.9,0,3.9,0,0-1.43,1.03-1.23,1.54.2.5.29,1.72.29,1.72,0,0-2.7,6.25-3.12,7.87-.39,1.61-3.74,7.46-3.74,7.46,0,0-1.09,2.01,1.02,2.54l-4.05,13.01-1.39.18s-.5,3.75,0,3.95c.52.21.81,2.22.91,2.73.11.51,2.12,3.03,2.12,3.03l4.54,10.09s.4,2.32-3.23,3.84c-3.63,1.51-4.43,2.22-4.43,2.22,0,0-1.36.76-2.36.45-.2-.07-.37-.11-.5-.15l-2.42-38.4-2.45-38.78s1.76,1.31,1.96,1.91c.12.3,1.69,2.35,3.76,4.44,1.96,1.99,4.37,4,6.35,4.54,0,0,1.72,1.71,5.24-3.74l1.69-2.77c-.03.15-.42,3.73,1.54,5.6,0,0-.7,2.42-.49,2.82ZM263.57,78.5c-2.11-3.14-2.11-12.49-2.11-12.49,2.93-15.45,13.21-13.12,13.21-13.12-4.73.6-6.95,2.72-6.95,2.72-8.42,8.02-4.31,22.33-4.16,22.89ZM291.81,89.38l-.19-.43c.64-.74.75-1.56.32-2.48-.32-.7-.86-1.49-1.59-2.37-.97-1.14-1.64-1.9-2.01-2.27-.48-.55-.99-1.04-1.52-1.46-1.2-.92-2.24-1.14-3.12-.67-.74.47-1.12,1.36-1.13,2.66-.03,1.3.08,2.78.3,4.43.16,1.22.27,2.42.34,3.58.07,1.17-.02,2.2-.23,3.1-.22.89-.7,1.54-1.43,1.92-.65.35-1.34.41-2.06.17-.72-.24-1.4-.7-2.06-1.39-.65-.7-1.21-1.54-1.66-2.52-.59-1.28-1.01-2.58-1.26-3.88-.24-1.31-.4-2.64-.46-3.99-.06-1.35-.08-2.74-.07-4.16.02-1.68-.03-3.42-.12-5.23-.1-1.8-.35-3.69-.77-5.66-.42-1.96-1.12-4.02-2.12-6.17-.17-.37-.43-.89-.79-1.56-.36-.68-.66-1.18-.91-1.5l2.92-1.56c13.62,15.89,20.7,24.16,21.25,24.81.9,1.06,1.74,1.79,2.5,2.18.77.4,1.6.53,2.52.38l.19.43-6.82,3.64ZM272.04,64.02c1.04,2.25,1.78,4.31,2.23,6.18.44,1.87.73,3.62.85,5.24.12,1.63.18,3.16.19,4.62,0,1.2.04,2.38.12,3.53.07,1.16.23,2.32.48,3.48s.66,2.37,1.23,3.6c.37.81.81,1.52,1.29,2.12.5.6,1.03,1.02,1.61,1.25.58.24,1.16.19,1.75-.12.54-.29.86-.81.98-1.54.12-.75.12-1.61,0-2.6-.13-.99-.29-2.04-.49-3.13-.35-1.76-.55-3.39-.6-4.87-.05-1.49.38-2.51,1.26-3.09.95-.5,2.12-.18,3.53.97l-15.99-18.71c.58,1.07,1.1,2.09,1.55,3.07Z"/>
</svg>