<svg width="89" height="60" viewBox="0 0 89 60" fill="none" xmlns="http://www.w3.org/2000/svg">
<path d="M41.0739 44.5833L34.7228 38.2322V44.9857C34.3833 44.9908 31.6694 45.0053 31.3273 45.0053C17.3524 45.0053 5.58016 40.6186 1.96775 34.6359C1.96689 34.6376 1.9652 34.6402 1.9652 34.6402C0.218548 31.6004 1.00041 29.0608 1.00041 29.0608C-0.984458 34.8614 0.431237 39.2582 1.42155 41.3299C4.22997 47.8392 16.551 52.7414 31.3273 52.7414C31.6685 52.7414 34.385 52.7346 34.7228 52.7295V59.1878L41.6618 52.2488L45.201 48.7096L41.0739 44.5833Z" fill="#121F48"/>
<path d="M0.818359 30.7683C0.818359 32.11 1.22417 33.4057 1.96775 34.6368C3.6072 31.922 6.93801 29.5423 11.3816 27.7455V20C4.91486 22.611 0.818359 26.4651 0.818359 30.7683Z" fill="#121F48"/>
<path d="M76.4409 20V27.7455C80.8837 29.5423 84.2154 31.922 85.8548 34.6368C86.5975 33.4066 87.0042 32.11 87.0042 30.7683C87.0034 26.4651 82.9069 22.611 76.4409 20Z" fill="#121F48"/>
<path d="M86.8213 29.0616C86.8213 29.0616 87.6023 31.6021 85.8565 34.6411C85.8557 34.6394 85.854 34.6368 85.854 34.6368C82.4032 40.3524 71.4996 44.6029 58.3474 44.9713C57.9645 44.9823 54.381 45.1959 46.3488 45.03L50.0293 48.7113L45.9685 52.7721C55.0251 53.0392 57.9084 52.7244 58.2759 52.7151C72.2517 52.339 83.7049 47.5764 86.3993 41.3308C87.3905 39.2591 88.807 34.8623 86.8213 29.0616Z" fill="#121F48"/>
<path d="M19.0821 4.24H32.0741L32.2341 4.432L24.4581 12.432C29.6421 12.688 33.0981 15.568 33.0981 19.472C33.0981 23.536 29.3221 26.32 24.6181 26.32C22.2821 26.32 20.2341 25.744 18.5701 24.72L19.9141 20.24H20.0741C20.9061 23.344 22.6661 25.008 25.0661 25.008C27.5301 25.008 28.9381 22.896 28.9381 19.824C28.9381 16.016 26.7621 13.616 23.3061 13.616L22.5701 13.008L27.5941 7.44H24.8421C20.4901 7.44 19.3701 7.696 18.9221 8.72H18.7621L19.0821 4.24ZM45.5074 3.92L45.5714 4.24C42.0514 5.264 39.5234 8.976 38.9154 13.616C40.1634 12.464 41.9554 11.856 43.7474 11.856C47.7474 11.856 50.7234 14.928 50.7234 19.088C50.7234 23.728 46.9794 26.32 42.9154 26.32C38.0514 26.32 34.6914 22.576 34.6914 17.104C34.6914 10.288 39.8754 3.92 45.5074 3.92ZM38.7554 15.248C38.7554 15.472 38.7554 15.664 38.7554 15.888C38.7554 21.456 41.4114 24.912 44.0994 24.912C45.8274 24.912 46.7874 23.472 46.7874 20.848C46.7874 17.04 44.7394 13.616 41.9554 13.616C40.8674 13.616 39.7154 14.128 38.7554 15.248ZM52.3164 15.12C52.3164 8.816 55.7404 4.24 60.4764 4.24C65.2124 4.24 68.6364 8.816 68.6364 15.12C68.6364 21.424 65.2124 26 60.4764 26C55.7404 26 52.3164 21.424 52.3164 15.12ZM56.1564 15.12C56.1564 21.264 57.7244 24.72 60.4764 24.72C63.2284 24.72 64.7964 21.264 64.7964 15.12C64.7964 9.008 63.2284 5.52 60.4764 5.52C57.7244 5.52 56.1564 9.008 56.1564 15.12ZM70.4146 7.344C70.4146 5.392 71.8546 3.92 73.8386 3.92C75.7906 3.92 77.2626 5.392 77.2626 7.344C77.2626 9.296 75.7906 10.768 73.8386 10.768C71.8546 10.768 70.4146 9.296 70.4146 7.344ZM71.3746 7.344C71.3746 8.752 72.4306 9.808 73.8386 9.808C75.2466 9.808 76.3026 8.752 76.3026 7.344C76.3026 5.936 75.2466 4.88 73.8386 4.88C72.4306 4.88 71.3746 5.936 71.3746 7.344Z" fill="#121F48"/>
</svg>
