<svg width="37" height="24" viewBox="0 0 37 24" fill="none" xmlns="http://www.w3.org/2000/svg">
<g clip-path="url(#clip0_159_210)">
<path opacity="0.07" d="M34.0789 0H2.92105C1.26579 0 0 1.3 0 3V21C0 22.7 1.36316 24 2.92105 24H34.0789C35.7342 24 37 22.7 37 21V3C37 1.3 35.6368 0 34.0789 0Z" fill="black"/>
<path d="M32.2397 1C33.2513 1 34.0789 1.9 34.0789 3V21C34.0789 22.1 33.2513 23 32.2397 23H2.81281C1.80126 23 0.973633 22.1 0.973633 21V3C0.973633 1.9 1.80126 1 2.81281 1H32.2397Z" fill="white"/>
<path d="M0.973633 3C0.973633 1.89543 1.86906 1 2.97363 1H12.6578V23H2.97363C1.86906 23 0.973633 22.1046 0.973633 21V3Z" fill="#002495"/>
<rect x="12.6578" y="1" width="11.6842" height="22" fill="white"/>
<path d="M24.3422 1H34.0264C35.1309 1 36.0264 1.89543 36.0264 3V21C36.0264 22.1046 35.1309 23 34.0264 23H24.3422V1Z" fill="#ED2939"/>
</g>
<defs>
<clipPath id="clip0_159_210">
<rect width="37" height="24" fill="white"/>
</clipPath>
</defs>
</svg>
