<svg xmlns:xlink="http://www.w3.org/1999/xlink" xmlns="http://www.w3.org/2000/svg" aria-hidden="true" focusable="false" fill="none" stroke-width="1.2" width="24" class="sm:hidden icon icon-picto-jewelry" viewBox="0 0 24 24" height="24" >
      <path clip-rule="evenodd" d="M19.237 3.225a1.5 1.5 0 0 0-1.2-.6h-12a1.5 1.5 0 0 0-1.2.6L1.5 7.676a1.5 1.5 0 0 0 .048 1.86l9.338 11.3a1.5 1.5 0 0 0 2.3 0l9.338-11.3a1.5 1.5 0 0 0 .048-1.86l-3.335-4.451Z" stroke="#1C1C1C" stroke-linecap="round" stroke-linejoin="round" fill="none" stroke-width="1.2px"></path>
      <path d="m5.349 2.792 6.688 18.583m6.687-18.583-6.687 18.583M1.198 8.625h21.673m-15.334 0 4.5-6 4.5 6" stroke="#1C1C1C" stroke-linecap="round" stroke-linejoin="round" fill="none" stroke-width="1.2px"></path>
    </svg>