<svg xmlns:xlink="http://www.w3.org/1999/xlink" xmlns="http://www.w3.org/2000/svg" aria-hidden="true" focusable="false" fill="none" stroke-width="1.2" width="24" class="sm:hidden icon icon-picto-delivery-truck" viewBox="0 0 24 24" height="24" >
      <path d="M23.25 13.5V6a1.5 1.5 0 0 0-1.5-1.5h-12A1.5 1.5 0 0 0 8.25 6v6m0 0V6h-3a4.5 4.5 0 0 0-4.5 4.5v6a1.5 1.5 0 0 0 1.5 1.5H3" stroke="#1C1C1C" stroke-linecap="round" stroke-linejoin="round" fill="none" stroke-width="1.2px"></path>
      <path d="M.75 12h3a1.5 1.5 0 0 0 1.5-1.5V6" stroke="#1C1C1C" stroke-linecap="round" stroke-linejoin="round" fill="none" stroke-width="1.2px"></path>
      <path clip-rule="evenodd" d="M7.5 19.5a2.25 2.25 0 1 0 0-4.5 2.25 2.25 0 0 0 0 4.5Zm12 0a2.25 2.25 0 1 0 0-4.5 2.25 2.25 0 0 0 0 4.5Z" stroke="#1C1C1C" stroke-linecap="round" stroke-linejoin="round" fill="none" stroke-width="1.2px"></path>
      <path d="M12 18h3" stroke="#1C1C1C" stroke-linecap="round" stroke-linejoin="round" fill="none" stroke-width="1.2px"></path>
    </svg>