<svg width="75" height="75" viewBox="0 0 75 75" fill="none" xmlns="http://www.w3.org/2000/svg">
<path d="M49.8758 37.1246L50.9366 38.6707C51.4463 38.3209 51.7508 37.7426 51.7508 37.1246C51.7508 36.5066 51.4463 35.9284 50.9366 35.5785L49.8758 37.1246ZM30.7508 50.2496H28.8758C28.8758 50.9456 29.2613 51.5843 29.8772 51.9086C30.4931 52.233 31.2379 52.1895 31.8116 51.7957L30.7508 50.2496ZM30.7508 23.9996L31.8116 22.4537C31.2379 22.0598 30.4931 22.0163 29.8772 22.3406C29.2613 22.6648 28.8758 23.3036 28.8758 23.9996H30.7508ZM71.25 37.5C71.25 56.1398 56.1398 71.25 37.5 71.25V75C58.2105 75 75 58.2105 75 37.5H71.25ZM37.5 71.25C18.8604 71.25 3.75 56.1398 3.75 37.5H0C0 58.2105 16.7893 75 37.5 75V71.25ZM3.75 37.5C3.75 18.8604 18.8604 3.75 37.5 3.75V0C16.7893 0 0 16.7893 0 37.5H3.75ZM37.5 3.75C56.1398 3.75 71.25 18.8604 71.25 37.5H75C75 16.7893 58.2105 0 37.5 0V3.75ZM48.8149 35.5785L29.6898 48.7035L31.8116 51.7957L50.9366 38.6707L48.8149 35.5785ZM32.6258 50.2496V23.9996H28.8758V50.2496H32.6258ZM29.6898 25.5456L48.8149 38.6707L50.9366 35.5785L31.8116 22.4537L29.6898 25.5456Z" fill="white"/>
</svg>
