<svg xmlns:xlink="http://www.w3.org/1999/xlink" width="20" height="20" viewBox="0 0 20 20" fill="none" xmlns="http://www.w3.org/2000/svg"><path fill-rule="evenodd" clip-rule="evenodd" d="M1.25 1.875c0-.345.28-.625.625-.625H3.75c.298 0 .554.21.613.502l.524 2.623h13.238a.625.625 0 0 1 .618.72l-1.25 8.125a.625.625 0 0 1-.618.53H5.625a.625.625 0 0 1-.618-.53L3.76 5.109 3.238 2.5H1.875a.625.625 0 0 1-.625-.625Zm3.854 3.75L6.16 12.5h10.18l1.058-6.875H5.104Zm2.709 10a.937.937 0 1 0 0 1.875.937.937 0 0 0 0-1.875Zm-2.188.938a2.188 2.188 0 1 1 4.375 0 2.188 2.188 0 0 1-4.375 0Zm9.688-.938a.937.937 0 1 0 0 1.875.937.937 0 0 0 0-1.875Zm-2.188.938a2.188 2.188 0 1 1 4.375 0 2.188 2.188 0 0 1-4.375 0Z" fill="#444647"></path></svg>