<svg xmlns:xlink="http://www.w3.org/1999/xlink" width="24" height="24" viewBox="0 0 24 24" fill="none" xmlns="http://www.w3.org/2000/svg" class="size-4 md:size-7 color-black"><g clip-path="url(#clip0_6794_31019)" fill="none"><path d="M15.3002 11.8999L15.5831 12.3122C15.719 12.2189 15.8002 12.0647 15.8002 11.8999C15.8002 11.7351 15.719 11.5809 15.5831 11.4876L15.3002 11.8999ZM10.2002 15.3999H9.7002C9.7002 15.5855 9.80301 15.7558 9.96724 15.8423C10.1315 15.9288 10.3301 15.9172 10.4831 15.8122L10.2002 15.3999ZM10.2002 8.3999L10.4831 7.98765C10.3301 7.88262 10.1315 7.87101 9.96724 7.95749C9.80301 8.04396 9.7002 8.2143 9.7002 8.3999H10.2002ZM21 12C21 16.9706 16.9706 21 12 21V22C17.5228 22 22 17.5228 22 12H21ZM12 21C7.02944 21 3 16.9706 3 12H2C2 17.5228 6.47715 22 12 22V21ZM3 12C3 7.02944 7.02944 3 12 3V2C6.47715 2 2 6.47715 2 12H3ZM12 3C16.9706 3 21 7.02944 21 12H22C22 6.47715 17.5228 2 12 2V3ZM15.0173 11.4876L9.91727 14.9876L10.4831 15.8122L15.5831 12.3122L15.0173 11.4876ZM10.7002 15.3999V8.3999H9.7002V15.3999H10.7002ZM9.91727 8.81216L15.0173 12.3122L15.5831 11.4876L10.4831 7.98765L9.91727 8.81216Z" fill="#1D1D1E"></path></g><defs><clipPath id="clip0_6794_31019"><rect width="24" height="24" fill="currentColor"></rect></clipPath></defs></svg>