<svg xmlns:xlink="http://www.w3.org/1999/xlink" width="24" height="24" viewBox="0 0 24 24" fill="none" xmlns="http://www.w3.org/2000/svg" class="flex-shrink-0 w-5 h-5 color-green-100 path-stroke-white"><path fill-rule="evenodd" clip-rule="evenodd" d="M22 12C22 17.5228 17.5228 22 12 22C6.47715 22 2 17.5228 2 12C2 6.47715 6.47715 2 12 2C17.5228 2 22 6.47715 22 12ZM17.351 8.85605C17.5477 8.66218 17.5499 8.3456 17.3561 8.14896C17.1622 7.95232 16.8456 7.95008 16.649 8.14395L9.92031 14.7778L7.3705 11.9642C7.18506 11.7596 6.86886 11.7441 6.66424 11.9295C6.45963 12.1149 6.44408 12.4311 6.62951 12.6358L9.52951 15.8358C9.62101 15.9367 9.74975 15.996 9.88595 15.9998C10.0221 16.0036 10.154 15.9517 10.251 15.8561L17.351 8.85605Z" fill="#3C4238"></path></svg>