<svg xmlns:xlink="http://www.w3.org/1999/xlink" xmlns="http://www.w3.org/2000/svg" width="24" height="24" viewBox="0 0 24 24" fill="none">
<path fill-rule="evenodd" clip-rule="evenodd" d="M3 0C1.34315 0 0 1.34315 0 3V21C0 22.6569 1.34315 24 3 24H21C22.6569 24 24 22.6569 24 21V3C24 1.34315 22.6569 0 21 0H3ZM16.3018 10.9641C16.3898 10.9637 16.4776 10.9591 16.5652 10.9504H16.5667V9.12007C15.8981 9.06989 15.268 8.77997 14.7866 8.30103C14.3051 7.82208 14.0029 7.18459 13.9328 6.5H12.3984L12.3824 14.1795C12.3824 15.1217 11.5721 15.8641 10.6546 15.8641C10.214 15.8641 9.79153 15.6844 9.48002 15.3645C9.16852 15.0446 8.99352 14.6108 8.99352 14.1584C8.99352 13.706 9.16852 13.2721 9.48002 12.9523C9.79153 12.6324 10.214 12.4527 10.6546 12.4527C10.7056 12.4527 10.755 12.4596 10.8045 12.4666C10.8215 12.4689 10.8386 12.4713 10.8557 12.4735V10.8266C10.8398 10.8255 10.824 10.8244 10.8081 10.8233C10.7573 10.8196 10.7064 10.816 10.6546 10.816C10.0109 10.816 9.38164 11.012 8.84644 11.3792C8.31123 11.7464 7.89409 12.2684 7.64776 12.8791C7.40143 13.4897 7.33698 14.1617 7.46256 14.81C7.58814 15.4583 7.8981 16.0538 8.35326 16.5211C8.80841 16.9885 9.38831 17.3068 10.0196 17.4358C10.651 17.5647 11.3053 17.4986 11.9 17.2456C12.4947 16.9927 13.003 16.5643 13.3606 16.0147C13.7182 15.4651 13.9091 14.819 13.9091 14.158V9.63625C14.1692 10.0442 14.5241 10.3792 14.9419 10.611C15.3596 10.8428 15.827 10.9642 16.3018 10.9641Z" fill="white"/>
</svg>